<svg width="512" height="512" viewBox="0 0 512 512" fill="none" xmlns="http://www.w3.org/2000/svg">
<rect width="512" height="512" fill="#E67E22"/>
<g transform="translate(102.4 102.4) scale(9.6)">
<path d="M22.9665 17.925C24.348 16.3335 24.7165 14.5715 24.7165 13.781V8.56249C24.7165 7.39549 23.711 6.36649 21.8845 5.66449C20.3 5.05549 18.21 4.72049 15.9995 4.72049C13.789 4.72049 11.699 5.05599 10.1145 5.66449C8.2885 6.36599 7.2825 7.39549 7.2825 8.56249V13.781C7.2825 14.571 7.651 16.3335 9.033 17.925C9.758 18.76 10.908 19.6995 12.658 20.2525C12.783 20.461 12.967 20.787 13.1335 21.158C10.551 21.637 8.9865 22.725 8.9865 24.0925C8.9865 26.1845 12.5145 27.2795 15.999 27.2795C19.4835 27.2795 23.0115 26.185 23.0115 24.0925C23.0115 22.725 21.447 21.6365 18.8645 21.158C19.031 20.787 19.215 20.461 19.34 20.2525C21.0895 19.6995 22.24 18.76 22.965 17.925H22.9665ZM10.689 7.15849C12.095 6.61799 13.981 6.32049 16 6.32049C18.019 6.32049 19.905 6.61799 21.311 7.15849C22.5585 7.63799 23.1165 8.20899 23.1165 8.56299C23.1165 8.91699 22.558 9.48799 21.311 9.96749C19.905 10.508 18.019 10.8055 16 10.8055C13.981 10.8055 12.095 10.508 10.689 9.96749C9.4415 9.48799 8.8835 8.91699 8.8835 8.56299C8.8835 8.20899 9.442 7.63799 10.689 7.15849ZM10.242 16.876C9.2455 15.728 8.8835 14.396 8.8835 13.781V10.864C9.239 11.082 9.6505 11.282 10.1155 11.4605C11.7 12.0695 13.79 12.4045 16.0005 12.4045C18.211 12.4045 20.301 12.069 21.8855 11.4605C22.3505 11.282 22.762 11.082 23.1175 10.864V13.781C23.1175 14.396 22.7555 15.728 21.759 16.876C20.976 17.778 19.961 18.412 18.727 18.7735C18.651 18.783 18.577 18.8035 18.507 18.8345C17.75 19.0325 16.914 19.1325 16.001 19.1325C15.088 19.1325 14.252 19.0325 13.495 18.834C13.425 18.8035 13.3515 18.783 13.2765 18.7735C12.042 18.412 11.0265 17.778 10.243 16.8755L10.242 16.876ZM17.1305 23.624C17.402 24.1345 18.023 24.7425 19.4385 24.7425C19.8805 24.7425 20.2385 24.3845 20.2385 23.9425C20.2385 23.5005 19.8805 23.1425 19.4385 23.1425C19.2125 23.1425 18.673 23.116 18.543 22.8725C18.522 22.833 18.5055 22.781 18.495 22.7175C20.5605 23.088 21.4125 23.8145 21.4125 24.0925C21.4125 24.262 21.058 24.6675 20.106 25.0335C19.0375 25.444 17.541 25.6795 16 25.6795C14.459 25.6795 12.9625 25.444 11.894 25.0335C10.942 24.668 10.5875 24.2625 10.5875 24.0925C10.5875 23.8145 11.44 23.0875 13.505 22.7175C13.4945 22.781 13.478 22.833 13.457 22.8725C13.327 23.116 12.7875 23.1425 12.5615 23.1425C12.1195 23.1425 11.7615 23.5005 11.7615 23.9425C11.7615 24.3845 12.1195 24.7425 12.5615 24.7425C13.977 24.7425 14.598 24.1345 14.8695 23.624C15.258 22.894 15.1885 21.898 14.664 20.664C15.0845 20.709 15.5295 20.733 16 20.733C16.4705 20.733 16.9155 20.709 17.336 20.664C16.8115 21.8985 16.742 22.8945 17.1305 23.624Z" fill="white"/>
</g>
</svg>
